# xmcd CD database file
#
# Track frame offsets:
#	150
#	16069
#	31534
#	51726
#	63965
#	76935
#	92072
#	107550
#	128265
#	139877
#	156020
#	169774
#	185499
#	196053
#	208788
#	223821
#	239103
#	254685
#	270201
#
# Disc length: 3782 seconds
#
# Revision: 0
# Processed by: cddbd v1.5.2PL0 Copyright (c) Steve Scherf et al.
# Submitted via: CDex 1.51
#
DISCID=050ec413
DTITLE=Stephanie Trick - Live at The Sheldon
DYEAR=2010
DGENRE=Jazz
TTITLE0=Viper's Drag (Waller)
TTITLE1=In the Wee small Hours of the Morning
TTITLE2=Liza (Gershwin)
TTITLE3=Mule Walk (Johnson)
TTITLE4=Anitra's Dance (Grieg)
TTITLE5=Blues for Alfie (Trick)
TTITLE6=Huandful of Keys (Waller)
TTITLE7=Roberto Clemente (Roberts)
TTITLE8=Shout for Joy
TTITLE9=Everything Happens to Me
TTITLE10=Bach up to Me (Waller)
TTITLE11=St Louis Blues
TTITLE12=Champs-Elysées
TTITLE13=I ain't got Nobody
TTITLE14=Nothin'
TTITLE15=Ehoes of Spring
TTITLE16=Truckin'
TTITLE17=Hallelujah
TTITLE18=Harlem Strut (Johnson)
EXTD=YEAR: 2010
EXTT0=
EXTT1=
EXTT2=
EXTT3=
EXTT4=
EXTT5=
EXTT6=
EXTT7=
EXTT8=
EXTT9=
EXTT10=
EXTT11=
EXTT12=
EXTT13=
EXTT14=
EXTT15=
EXTT16=
EXTT17=
EXTT18=
PLAYORDER=
